<svg xmlns="http://www.w3.org/2000/svg" viewBox="0 0 720 240" role="img" aria-labelledby="title desc">
  <title id="title">httpOwl logo with wordmark</title>
  <desc id="desc">Geometric owl mark beside the httpOwl wordmark.</desc>
  <rect width="720" height="240" rx="36" fill="#f8fafc"/>
  <rect x="32" y="24" width="192" height="192" rx="42" fill="#070b16"/>
  <g transform="translate(32 24) scale(1.5)">
    <path fill="#f8fafc" d="M24 34h25l15 17 15-17h25l-9 50-31 20-31-20z"/>
    <path fill="#070b16" d="M37 54h23v23H37z" transform="rotate(45 48.5 65.5)"/>
    <path fill="#070b16" d="M65 54h23v23H65z" transform="rotate(45 76.5 65.5)"/>
    <circle cx="48.5" cy="65.5" r="6.5" fill="#f8fafc"/>
    <circle cx="76.5" cy="65.5" r="6.5" fill="#f8fafc"/>
    <path fill="#070b16" d="M64 75l8 10H56z"/>
    <path fill="#111827" d="M64 98l17-11-17 25-17-25z" opacity="0.68"/>
  </g>
  <g font-family="ui-sans-serif, system-ui, -apple-system, BlinkMacSystemFont, 'Segoe UI', sans-serif">
    <text x="260" y="124" fill="#070b16" font-size="72" font-weight="800" letter-spacing="-3">httpOwl</text>
    <text x="264" y="166" fill="#475569" font-size="25" font-weight="600" letter-spacing="0.5">browser request runner</text>
    <path d="M264 186h184" stroke="#0f172a" stroke-width="6" stroke-linecap="round"/>
    <path d="M470 186h36" stroke="#14b8a6" stroke-width="6" stroke-linecap="round"/>
  </g>
</svg>
