<svg xmlns="http://www.w3.org/2000/svg" viewBox="0 0 720 240" role="img" aria-labelledby="title desc">
  <title id="title">httpOwl logo with wordmark</title>
  <desc id="desc">Minimal abstract owl icon beside the httpOwl wordmark.</desc>
  <defs>
    <linearGradient id="iconBg" x1="32" y1="24" x2="224" y2="216" gradientUnits="userSpaceOnUse">
      <stop offset="0" stop-color="#172554"/>
      <stop offset="0.6" stop-color="#0f766e"/>
      <stop offset="1" stop-color="#22d3ee"/>
    </linearGradient>
    <linearGradient id="faceGrad" x1="128" y1="63" x2="128" y2="204" gradientUnits="userSpaceOnUse">
      <stop offset="0" stop-color="#ffffff"/>
      <stop offset="1" stop-color="#ccfbf1"/>
    </linearGradient>
    <linearGradient id="wordmark" x1="260" y1="78" x2="540" y2="149" gradientUnits="userSpaceOnUse">
      <stop offset="0" stop-color="#0f172a"/>
      <stop offset="1" stop-color="#0f766e"/>
    </linearGradient>
  </defs>
  <rect width="720" height="240" rx="36" fill="#f8fafc"/>
  <rect x="32" y="24" width="192" height="192" rx="42" fill="url(#iconBg)"/>
  <g transform="translate(32, 24) scale(1.5)">
    <path fill="url(#faceGrad)"
      d="M38 26 L52 36 L64 40 L76 36 L90 26
         C102 48 106 78 96 94
         C88 108 74 112 64 112
         C54 112 40 108 32 94
         C22 78 26 48 38 26 Z"/>
    <circle cx="48" cy="66" r="11" fill="#0f172a"/>
    <circle cx="80" cy="66" r="11" fill="#0f172a"/>
    <circle cx="51" cy="63" r="3.5" fill="#f8fafc" opacity="0.85"/>
    <circle cx="83" cy="63" r="3.5" fill="#f8fafc" opacity="0.85"/>
    <path fill="#f59e0b" d="M64 82 L58 90 L70 90 Z"/>
  </g>
  <g font-family="Inter, ui-sans-serif, system-ui, -apple-system, BlinkMacSystemFont, 'Segoe UI', sans-serif">
    <text x="260" y="124" fill="url(#wordmark)" font-size="72" font-weight="800" letter-spacing="-3">httpOwl</text>
    <text x="264" y="166" fill="#64748b" font-size="25" font-weight="600" letter-spacing="0.5">browser request runner</text>
    <path d="M264 186h184" stroke="#22d3ee" stroke-width="6" stroke-linecap="round"/>
    <path d="M470 186h36" stroke="#f59e0b" stroke-width="6" stroke-linecap="round"/>
  </g>
</svg>
